<mxfile host="65bd71144e">
    <diagram id="Iqh0p4z0CSAQo3-YcA2V" name="ページ1">
        <mxGraphModel dx="947" dy="777" grid="1" gridSize="10" guides="1" tooltips="1" connect="1" arrows="1" fold="1" page="1" pageScale="1" pageWidth="827" pageHeight="1169" math="0" shadow="0">
            <root>
                <mxCell id="0"/>
                <mxCell id="1" parent="0"/>
                <mxCell id="12" value="" style="rounded=0;whiteSpace=wrap;html=1;" vertex="1" parent="1">
                    <mxGeometry x="40" y="120" width="360" height="320" as="geometry"/>
                </mxCell>
                <mxCell id="2" value="道&lt;div&gt;～すべきこと～&lt;/div&gt;" style="text;html=1;align=center;verticalAlign=middle;whiteSpace=wrap;rounded=0;fillColor=#dae8fc;strokeColor=#6c8ebf;" parent="1" vertex="1">
                    <mxGeometry x="40" y="40" width="160" height="40" as="geometry"/>
                </mxCell>
                <mxCell id="10" value="NG領域" style="text;html=1;align=center;verticalAlign=middle;whiteSpace=wrap;rounded=0;" parent="1" vertex="1">
                    <mxGeometry x="190" y="120" width="60" height="30" as="geometry"/>
                </mxCell>
                <mxCell id="11" value="" style="ellipse;whiteSpace=wrap;html=1;aspect=fixed;opacity=50;fillColor=#f5f5f5;fontColor=#333333;strokeColor=#666666;" vertex="1" parent="1">
                    <mxGeometry x="80" y="150" width="280" height="280" as="geometry"/>
                </mxCell>
                <mxCell id="13" value="" style="ellipse;whiteSpace=wrap;html=1;aspect=fixed;opacity=50;fillColor=#d5e8d4;strokeColor=#82b366;" vertex="1" parent="1">
                    <mxGeometry x="125" y="195" width="190" height="190" as="geometry"/>
                </mxCell>
                <mxCell id="14" value="未規定領域" style="text;html=1;align=center;verticalAlign=middle;whiteSpace=wrap;rounded=0;" vertex="1" parent="1">
                    <mxGeometry x="175" y="160" width="90" height="30" as="geometry"/>
                </mxCell>
                <mxCell id="15" value="OK領域" style="text;html=1;align=center;verticalAlign=middle;whiteSpace=wrap;rounded=0;" vertex="1" parent="1">
                    <mxGeometry x="175" y="205" width="90" height="30" as="geometry"/>
                </mxCell>
                <mxCell id="16" value="コア領域" style="ellipse;whiteSpace=wrap;html=1;aspect=fixed;opacity=50;fillColor=#dae8fc;strokeColor=#6c8ebf;" vertex="1" parent="1">
                    <mxGeometry x="160" y="230" width="120" height="120" as="geometry"/>
                </mxCell>
                <mxCell id="17" value="コア領域" style="text;html=1;align=center;verticalAlign=middle;whiteSpace=wrap;rounded=0;" vertex="1" parent="1">
                    <mxGeometry x="440" y="200" width="80" height="40" as="geometry"/>
                </mxCell>
                <mxCell id="18" value="徳目や心得で示される" style="text;html=1;align=center;verticalAlign=middle;whiteSpace=wrap;rounded=0;" vertex="1" parent="1">
                    <mxGeometry x="560" y="200" width="200" height="40" as="geometry"/>
                </mxCell>
                <mxCell id="19" value="OK領域" style="text;html=1;align=center;verticalAlign=middle;whiteSpace=wrap;rounded=0;" vertex="1" parent="1">
                    <mxGeometry x="440" y="240" width="80" height="40" as="geometry"/>
                </mxCell>
                <mxCell id="20" value="作法や稽古で示される" style="text;html=1;align=center;verticalAlign=middle;whiteSpace=wrap;rounded=0;" vertex="1" parent="1">
                    <mxGeometry x="560" y="240" width="200" height="40" as="geometry"/>
                </mxCell>
                <mxCell id="21" value="NG領域" style="text;html=1;align=center;verticalAlign=middle;whiteSpace=wrap;rounded=0;" vertex="1" parent="1">
                    <mxGeometry x="440" y="280" width="80" height="40" as="geometry"/>
                </mxCell>
                <mxCell id="22" value="作法や規則で示される" style="text;html=1;align=center;verticalAlign=middle;whiteSpace=wrap;rounded=0;" vertex="1" parent="1">
                    <mxGeometry x="560" y="280" width="200" height="40" as="geometry"/>
                </mxCell>
                <mxCell id="23" value="未規定領域" style="text;html=1;align=center;verticalAlign=middle;whiteSpace=wrap;rounded=0;" vertex="1" parent="1">
                    <mxGeometry x="440" y="320" width="80" height="40" as="geometry"/>
                </mxCell>
                <mxCell id="24" value="作法や規則で示されない&lt;div&gt;コア領域に反するかどうかの判断をする&lt;/div&gt;" style="text;html=1;align=center;verticalAlign=middle;whiteSpace=wrap;rounded=0;" vertex="1" parent="1">
                    <mxGeometry x="560" y="320" width="230" height="40" as="geometry"/>
                </mxCell>
            </root>
        </mxGraphModel>
    </diagram>
</mxfile>